<?xml version="1.0" standalone="no"?>
<!DOCTYPE svg PUBLIC "-//W3C//DTD SVG 20010904//EN"
 "http://www.w3.org/TR/2001/REC-SVG-20010904/DTD/svg10.dtd">
<svg version="1.0" xmlns="http://www.w3.org/2000/svg"
 width="501.000000pt" height="460.000000pt" viewBox="0 0 501.000000 460.000000"
 preserveAspectRatio="xMidYMid meet">
<metadata>
Created by potrace 1.16, written by Peter Selinger 2001-2019
</metadata>
<g transform="translate(0.000000,460.000000) scale(0.100000,-0.100000)"
fill="#808080" stroke="none">
<path d="M0 2300 l0 -2300 2505 0 2505 0 0 2300 0 2300 -2505 0 -2505 0 0
-2300z m1375 1804 c80 -20 116 -42 143 -91 79 -143 0 -294 -182 -347 l-41 -12
3 -72 4 -72 -75 0 -74 0 -2 153 c-1 149 -17 394 -28 431 -3 10 1 22 8 27 19
12 169 1 244 -17z m771 6 c23 -12 50 -32 58 -46 l17 -24 30 35 c38 42 91 59
149 46 122 -27 173 -155 150 -376 -10 -99 -53 -265 -69 -265 -10 0 -125 22
-129 25 -1 1 5 22 13 46 30 82 45 180 45 282 0 110 -13 147 -50 147 -56 0 -86
-125 -77 -317 l6 -123 -70 0 c-65 0 -70 1 -64 20 11 34 7 273 -5 325 -16 71
-35 97 -68 93 -45 -5 -54 -38 -48 -168 4 -77 14 -145 31 -208 14 -51 25 -95
25 -96 0 -9 -124 -26 -131 -19 -4 4 -20 44 -35 88 -36 108 -46 300 -19 390 26
93 67 138 140 156 48 11 56 10 101 -11z m-1194 -10 c52 -15 95 -61 103 -110 8
-46 -7 -100 -35 -125 -19 -17 -19 -18 18 -37 55 -28 77 -63 77 -125 0 -131
-142 -214 -408 -238 l-68 -6 8 123 c10 152 10 237 1 400 l-8 127 38 4 c57 7
233 -1 274 -13z m887 -2 c0 -13 -4 -43 -7 -68 -7 -42 -9 -45 -42 -50 -39 -6
-83 -59 -78 -94 3 -18 10 -20 56 -17 l52 2 0 -33 c0 -18 3 -49 6 -69 l6 -36
-61 -7 c-34 -4 -61 -10 -61 -13 0 -3 9 -20 20 -38 21 -34 56 -54 106 -59 28
-3 29 -6 36 -66 4 -35 5 -67 2 -72 -5 -8 -55 -3 -116 13 -46 12 -115 64 -145
109 -82 120 -66 342 30 447 50 55 86 72 150 73 42 0 47 -2 46 -22z m1011 -2
c0 -13 -3 -44 -6 -70 -6 -40 -10 -46 -31 -46 -38 0 -58 -15 -78 -60 -23 -50
-14 -60 49 -53 l43 5 6 -47 c13 -93 14 -92 -53 -99 l-60 -7 15 -29 c20 -40 59
-67 104 -75 l39 -6 6 -61 c5 -37 3 -65 -3 -71 -15 -15 -139 18 -186 51 -116
81 -156 263 -94 428 24 64 79 131 124 150 17 7 51 13 78 14 43 0 47 -2 47 -24z
m1395 5 c88 -41 130 -123 129 -256 0 -150 -59 -283 -153 -350 -56 -40 -148
-47 -208 -16 -109 55 -162 203 -129 358 26 125 96 235 171 269 44 19 142 17
190 -5z m-895 -291 l-1 -290 -73 0 -73 0 -1 108 -1 107 -38 7 c-21 4 -50 7
-65 7 l-28 1 0 -125 0 -125 -70 0 -70 0 2 293 3 292 68 3 67 3 0 -101 0 -100
33 0 c17 0 49 -3 70 -6 l37 -7 0 112 0 111 70 0 70 0 0 -290z m480 0 l0 -290
-70 0 -70 0 0 109 0 109 -61 7 c-33 4 -62 5 -65 3 -2 -3 -5 -59 -6 -126 l-3
-122 -72 0 -72 0 2 293 2 292 70 0 70 0 1 -93 c1 -51 3 -94 5 -96 2 -2 32 -6
67 -10 l62 -7 0 111 0 110 70 0 70 0 0 -290z m-1935 -461 c44 -11 112 -38 134
-54 7 -5 30 -26 50 -46 20 -20 54 -52 75 -70 l39 -34 241 3 241 4 60 37 c53
34 179 97 286 145 50 22 174 38 234 31 171 -21 236 -148 159 -310 -21 -47 -48
-76 -143 -158 -8 -6 -60 -34 -115 -62 l-101 -50 -12 -125 c-13 -148 -39 -274
-87 -431 -118 -384 -209 -564 -329 -643 -68 -45 -182 -86 -240 -86 -64 0 -150
49 -238 133 -132 128 -149 180 -179 552 -13 152 -29 257 -75 490 l-33 170 -85
87 c-107 111 -129 155 -135 274 l-4 90 31 30 c17 16 41 32 53 36 26 7 114 1
173 -13z m-1185 -2261 c52 -27 105 -92 121 -151 7 -23 12 -77 11 -119 -1 -124
-39 -228 -115 -315 -107 -122 -301 -86 -370 67 -25 58 -34 192 -17 269 25 111
90 210 166 250 54 29 145 28 204 -1z m750 -10 c0 -18 -3 -50 -6 -70 -5 -31
-11 -38 -30 -38 -12 0 -36 -11 -52 -25 -35 -29 -52 -87 -52 -177 0 -104 44
-164 128 -175 34 -5 42 -10 42 -27 0 -11 3 -45 7 -75 l6 -54 -59 7 c-172 20
-265 134 -267 326 -2 202 93 339 236 340 46 0 47 0 47 -32z m190 -1 c0 -55 30
-138 60 -169 33 -33 79 -37 103 -10 21 22 35 94 29 143 l-4 36 71 9 70 10 7
-54 c12 -100 -32 -262 -104 -380 -41 -69 -161 -210 -178 -211 -7 -1 -41 13
-77 29 l-65 31 56 52 c59 56 137 166 125 177 -5 4 -26 12 -49 18 -56 16 -127
81 -152 140 -19 44 -42 150 -42 195 0 15 10 17 75 17 l75 0 0 -33z m975 -34
c-4 -38 -8 -68 -8 -69 -1 0 -20 -5 -41 -10 -34 -8 -44 -16 -64 -55 -31 -62
-34 -177 -6 -235 23 -47 76 -84 120 -84 33 0 34 -2 34 -37 0 -21 3 -55 6 -76
l7 -38 -59 6 c-32 3 -81 16 -109 29 -114 53 -159 139 -159 306 0 123 24 197
82 262 45 49 82 66 151 67 l53 1 -7 -67z m708 39 c29 -13 54 -33 67 -54 33
-54 23 -154 -18 -184 -9 -7 -15 -14 -12 -16 3 -2 21 -11 41 -21 19 -10 44 -32
53 -49 38 -63 11 -170 -56 -219 -76 -57 -227 -99 -354 -99 l-65 0 8 67 c10 86
10 436 0 525 l-7 67 32 4 c18 3 85 4 149 2 91 -2 126 -7 162 -23z m307 -35
c21 -113 74 -178 133 -163 38 9 57 53 57 130 l0 64 65 7 c36 4 69 5 72 2 12
-12 4 -165 -12 -226 -20 -76 -71 -184 -122 -255 -39 -54 -133 -156 -144 -156
-4 0 -37 14 -74 30 l-67 30 50 46 c52 46 132 156 132 180 0 8 -8 14 -18 14
-10 0 -40 11 -68 25 -85 44 -136 135 -150 269 l-7 66 70 0 71 0 12 -63z m976
44 c51 -23 94 -75 118 -141 25 -70 19 -221 -13 -302 -52 -134 -132 -209 -230
-216 -75 -5 -123 11 -167 56 -45 46 -68 91 -84 165 -10 44 -17 57 -32 57 -16
0 -18 -10 -18 -115 l0 -116 -72 3 c-67 3 -71 4 -75 28 -3 14 -1 148 2 298 l7
272 69 0 69 0 0 -110 0 -110 30 0 c24 0 33 6 41 28 36 96 103 181 164 208 44
19 142 17 191 -5z m-3456 -61 l0 -70 -40 0 -40 0 0 -240 0 -240 -70 0 -70 0 0
113 c0 61 -3 169 -7 240 l-6 127 -34 0 -33 0 0 70 0 70 150 0 150 0 0 -70z
m1170 0 l0 -70 -40 0 -40 0 0 -240 0 -240 -75 0 c-41 0 -74 3 -74 8 1 4 1 112
0 240 l-1 232 -35 0 -35 0 0 70 0 70 150 0 150 0 0 -70z m640 0 l0 -70 -40 0
-40 0 0 -240 0 -240 -70 0 -70 0 0 118 c0 66 -3 174 -7 240 l-6 122 -34 0 -33
0 0 70 0 70 150 0 150 0 0 -70z"/>
<path d="M1277 3933 c12 -145 14 -148 70 -113 32 19 63 66 63 94 0 27 -59 66
-100 66 l-38 0 5 -47z"/>
<path d="M800 3679 c0 -58 3 -70 14 -66 8 3 33 11 55 17 48 13 101 55 101 81
0 27 -31 39 -104 39 l-66 0 0 -71z"/>
<path d="M4085 3945 c-80 -84 -96 -272 -28 -325 53 -42 101 -17 143 72 36 75
45 143 30 208 -21 87 -87 107 -145 45z"/>
<path d="M2588 2686 c-28 -20 -22 -45 22 -92 l41 -44 -36 -31 c-40 -35 -53
-72 -35 -94 20 -25 46 -17 91 26 l42 40 41 -40 c44 -44 80 -52 94 -23 13 26 1
56 -35 87 -18 15 -33 31 -33 36 0 6 15 24 34 42 44 42 50 63 27 86 -25 25 -53
18 -91 -25 -34 -39 -45 -42 -60 -13 -10 18 -66 59 -80 59 -3 -1 -13 -7 -22
-14z"/>
<path d="M2083 2673 c-23 -9 -14 -46 20 -81 l32 -34 -32 -27 c-35 -29 -42 -61
-19 -81 18 -14 35 -6 72 39 l28 33 37 -43 c32 -37 41 -42 56 -33 29 18 26 47
-7 79 -36 35 -38 50 -5 71 30 20 41 50 24 70 -15 19 -47 9 -72 -22 -24 -31
-37 -30 -72 6 -28 30 -38 33 -62 23z"/>
<path d="M2380 1990 c-54 -10 -100 -41 -123 -85 -73 -136 -59 -251 35 -301 79
-41 233 12 297 102 57 80 16 215 -79 263 -45 23 -86 30 -130 21z"/>
<path d="M573 957 c-79 -44 -127 -217 -87 -316 16 -41 62 -72 93 -64 64 17
121 136 121 252 0 109 -57 167 -127 128z"/>
<path d="M3160 683 c0 -27 -3 -59 -7 -72 -6 -23 -4 -24 28 -17 63 12 138 55
145 83 10 39 -17 53 -98 53 l-68 0 0 -47z"/>
<path d="M4466 949 c-101 -79 -116 -325 -22 -364 26 -11 35 -11 58 1 95 49
142 287 71 358 -31 32 -71 33 -107 5z"/>
</g>
</svg>
