<svg width="31" height="29" viewBox="0 0 31 29" fill="none" xmlns="http://www.w3.org/2000/svg">
<path d="M28.7382 3.49686C27.2092 1.76195 25.0881 0.806519 22.7656 0.806519C19.4992 0.806519 17.4313 2.75734 16.2717 4.39392C15.9708 4.8186 15.7149 5.24442 15.5 5.64512C15.2851 5.24442 15.0292 4.8186 14.7283 4.39392C13.5687 2.75734 11.5008 0.806519 8.23438 0.806519C5.91192 0.806519 3.79078 1.76201 2.26173 3.49692C0.803275 5.15191 0 7.36841 0 9.73809C0 12.3176 1.00708 14.7167 3.16933 17.2883C5.1018 19.5866 7.88193 21.9557 11.1013 24.699C12.3009 25.7213 13.5414 26.7785 14.8621 27.934L14.9018 27.9688C15.073 28.1187 15.2865 28.1936 15.5 28.1936C15.7135 28.1936 15.927 28.1186 16.0982 27.9688L16.1379 27.934C17.4586 26.7785 18.6991 25.7214 19.8989 24.6989C23.1181 21.9558 25.8982 19.5867 27.8307 17.2883C29.9929 14.7167 31 12.3176 31 9.73809C31 7.36841 30.1967 5.15191 28.7382 3.49686ZM18.7207 23.3165C17.6865 24.1977 16.6222 25.1046 15.5 26.0802C14.3778 25.1048 13.3135 24.1978 12.2791 23.3164C5.9787 17.9475 1.81641 14.4006 1.81641 9.73809C1.81641 7.81088 2.45851 6.02088 3.62446 4.69787C4.80379 3.35984 6.44092 2.62292 8.23438 2.62292C10.7246 2.62292 12.3344 4.15706 13.2462 5.44405C14.0641 6.59831 14.4909 7.7619 14.6365 8.20856C14.7582 8.58243 15.1068 8.83546 15.5 8.83546C15.8932 8.83546 16.2418 8.58243 16.3635 8.20856C16.5091 7.7619 16.9359 6.59831 17.7538 5.44399C18.6656 4.15706 20.2754 2.62292 22.7656 2.62292C24.5591 2.62292 26.1962 3.35984 27.3755 4.69787C28.5415 6.02088 29.1836 7.81088 29.1836 9.73809C29.1836 14.4006 25.0213 17.9475 18.7207 23.3165Z" fill="red">
</path>
</svg>